<svg width="400" height="59" viewBox="0 0 400 59" fill="none" xmlns="http://www.w3.org/2000/svg">
<path d="M20.4754 0.155996H29.0294V50.728C29.0294 56.2427 26.0841 59 20.1934 59H9.75938C3.86872 59 0.923383 56.2427 0.923383 50.728V0.155996H9.47738V49.412C9.47738 50.54 9.66538 51.292 10.0414 51.668C10.4174 51.9813 11.1694 52.138 12.2974 52.138H17.6554C18.8461 52.138 19.5981 51.9813 19.9114 51.668C20.2874 51.292 20.4754 50.54 20.4754 49.412V0.155996ZM55.4867 49.412V35.03C55.4867 33.902 55.2987 33.1813 54.9227 32.868C54.6094 32.492 53.8887 32.304 52.7607 32.304H45.8047C40.102 32.304 37.2507 29.5153 37.2507 23.938V8.428C37.2507 2.91333 40.1647 0.155996 45.9927 0.155996H55.2047C61.0327 0.155996 63.9467 2.91333 63.9467 8.428V17.076H55.3927V9.744C55.3927 8.616 55.2047 7.89533 54.8287 7.582C54.4527 7.206 53.7007 7.018 52.5727 7.018H48.6247C47.4967 7.018 46.7447 7.206 46.3687 7.582C45.9927 7.89533 45.8047 8.616 45.8047 9.744V22.81C45.8047 23.938 45.9927 24.69 46.3687 25.066C46.7447 25.3793 47.4967 25.536 48.6247 25.536H55.4867C61.252 25.536 64.1347 28.2933 64.1347 33.808V50.728C64.1347 56.2427 61.1894 59 55.2987 59H46.1807C40.3527 59 37.4387 56.2427 37.4387 50.728V42.08H45.9927V49.412C45.9927 50.54 46.1807 51.292 46.5567 51.668C46.9327 51.9813 47.6847 52.138 48.8127 52.138H52.7607C53.8887 52.138 54.6094 51.9813 54.9227 51.668C55.2987 51.292 55.4867 50.54 55.4867 49.412ZM93.2116 22.998V9.556C93.2116 8.428 93.0236 7.70733 92.6476 7.394C92.2716 7.018 91.5196 6.83 90.3916 6.83H80.9916V25.724H90.3916C91.5196 25.724 92.2716 25.5673 92.6476 25.254C93.0236 24.878 93.2116 24.126 93.2116 22.998ZM93.2116 49.6V35.124C93.2116 33.996 93.0236 33.2753 92.6476 32.962C92.2716 32.586 91.5196 32.398 90.3916 32.398H80.9916V52.326H90.3916C91.5196 52.326 92.2716 52.1693 92.6476 51.856C93.0236 51.48 93.2116 50.728 93.2116 49.6ZM72.5316 0.155996H92.9296C98.8202 0.155996 101.766 2.91333 101.766 8.428V23.374C101.766 26.6953 100.512 28.638 98.0056 29.202C100.512 29.8287 101.766 31.646 101.766 34.654V50.728C101.766 56.2427 98.8202 59 92.9296 59H72.5316V0.155996ZM119.36 0.155996H129.794C135.622 0.155996 138.536 2.91333 138.536 8.428V50.728C138.536 56.2427 135.622 59 129.794 59H119.36C113.47 59 110.524 56.2427 110.524 50.728V8.428C110.524 2.91333 113.47 0.155996 119.36 0.155996ZM130.076 49.412V9.744C130.076 8.616 129.888 7.89533 129.512 7.582C129.136 7.206 128.384 7.018 127.256 7.018H121.804C120.676 7.018 119.924 7.206 119.548 7.582C119.235 7.89533 119.078 8.616 119.078 9.744V49.412C119.078 50.54 119.235 51.292 119.548 51.668C119.924 51.9813 120.676 52.138 121.804 52.138H127.256C128.384 52.138 129.136 51.9813 129.512 51.668C129.888 51.292 130.076 50.54 130.076 49.412ZM171.679 0.155996V7.018H161.809V59H153.349V7.018H143.479V0.155996H171.679ZM212.202 59L209.852 45.37H197.444L195.282 59H186.822L197.256 0.155996H209.57L220.756 59H212.202ZM198.478 38.508H208.724L203.366 7.488L198.478 38.508ZM250.532 0.155996V7.018H240.662V59H232.202V7.018H222.332V0.155996H250.532ZM264.404 52.138H281.418V59H255.85V0.155996H280.76V7.018H264.404V25.16H277.94V32.022H264.404V52.138ZM296.531 52.138H311.101V59H288.071V0.155996H296.531V52.138ZM317.096 0.155996H325.556V59H317.096V0.155996ZM344.634 52.138H361.648V59H336.08V0.155996H360.99V7.018H344.634V25.16H358.17V32.022H344.634V52.138ZM376.761 35.218V59H368.301V0.155996H387.571C393.399 0.155996 396.313 2.91333 396.313 8.428V26.852C396.313 31.6147 394.214 34.3407 390.015 35.03L399.321 59H390.203L381.367 35.218H376.761ZM376.761 7.018V28.45H385.033C386.161 28.45 386.913 28.2933 387.289 27.98C387.665 27.604 387.853 26.852 387.853 25.724V9.744C387.853 8.616 387.665 7.89533 387.289 7.582C386.913 7.206 386.161 7.018 385.033 7.018H376.761Z" fill="black"/>
</svg>
